<?xml version="1.0" encoding="utf-8"?>
<?xml-stylesheet type="text/xsl" href="rss1.xsl"?>
<rss version="2.0" xmlns:atom="http://www.w3.org/2005/Atom" xmlns:content="http://purl.org/rss/1.0/modules/content/" xmlns:dc="http://purl.org/dc/elements/1.1/" xmlns:media="http://search.yahoo.com/mrss/">
<channel>
 <title>Getty</title>
 <link>http://www.gettyimg.com/</link>
 <atom:link href="http://www.gettyimg.com/" rel="self" type="application/rss+xml" />

 
                <item>
                <title><![CDATA[【Requests】[REQ CAP] - Eminem - F1 Rocks (São Paulo 2010)]]></title>
                <link><![CDATA[https://sharemania.us/threads/eminem-f1-rocks-s%C3%A3o-paulo-2010.223281/]]></link>
                <description><![CDATA[<article>
<blockquote class="messageText SelectQuoteContainer ugc baseHtml">
Hi could someone upload a video of Eminem's 2010 concert in Sao Paulo - F1 Rocks from the Multishow channel?
<div class="messageTextEndMarker">&nbsp;</div>
</blockquote>
</article>]]></description>
                <author><![CDATA[BezSensu]]></author>
                </item>

                
                <item>
                <title><![CDATA[【HD Live Performances】HDTV - Fred again.. - Live @ Glastonbury 2023 HDTV H264 1080i DD2.0-ilya2129]]></title>
                <link><![CDATA[https://sharemania.us/threads/fred-again-live-glastonbury-2023-hdtv-h264-1080i-dd2-0-ilya2129.223282/]]></link>
                <description><![CDATA[<article>
<blockquote class="messageText SelectQuoteContainer ugc baseHtml">
<div style="text-align: center"><img src="https://i122.fastpic.org/big/2023/0623/b4/b37c6294354538a70aac338bdf3af5b4.png?r=1" class="bbCodeImage LbImage" alt="[​IMG]" data-url="https://i122.fastpic.org/big/2023/0623/b4/b37c6294354538a70aac338bdf3af5b4.png?r=1" style=""><br>
<br>
<a href="https://postimg.cc/34t5Zp2k" target="_blank" class="externalLink" rel="nofollow"><img src="https://i.postimg.cc/34t5Zp2k/vlcsnap-2023-06-24-15h29m33s283.png" class="bbCodeImage LbImage" alt="[​IMG]" data-url="https://i.postimg.cc/34t5Zp2k/vlcsnap-2023-06-24-15h29m33s283.png"></a> <a href="https://postimg.cc/ygY2Wd2s" target="_blank" class="externalLink" rel="nofollow"><img src="https://i.postimg.cc/ygY2Wd2s/vlcsnap-2023-06-24-15h29m34s896.png" class="bbCodeImage LbImage" alt="[​IMG]" data-url="https://i.postimg.cc/ygY2Wd2s/vlcsnap-2023-06-24-15h29m34s896.png"></a> <a href="https://postimg.cc/ykMqn73y" target="_blank" class="externalLink" rel="nofollow"><img src="https://i.postimg.cc/ykMqn73y/vlcsnap-2023-06-24-15h29m36s439.png" class="bbCodeImage LbImage" alt="[​IMG]" data-url="https://i.postimg.cc/ykMqn73y/vlcsnap-2023-06-24-15h29m36s439.png"></a> <a href="https://postimg.cc/nsxybTks" target="_blank" class="externalLink" rel="nofollow"><img src="https://i.postimg.cc/nsxybTks/vlcsnap-2023-06-24-15h29m37s964.png" class="bbCodeImage LbImage" alt="[​IMG]" data-url="https://i.postimg.cc/nsxybTks/vlcsnap-2023-06-24-15h29m37s964.png"></a> <a href="https://postimg.cc/w1LCGnh8" target="_blank" class="externalLink" rel="nofollow"><img src="https://i.postimg.cc/w1LCGnh8/vlcsnap-2023-06-24-15h29m39s977.png" class="bbCodeImage LbImage" alt="[​IMG]" data-url="https://i.postimg.cc/w1LCGnh8/vlcsnap-2023-06-24-15h29m39s977.png"></a> <a href="https://postimg.cc/2VbR41y5" target="_blank" class="externalLink" rel="nofollow"><img src="https://i.postimg.cc/2VbR41y5/vlcsnap-2023-06-24-15h29m42s623.png" class="bbCodeImage LbImage" alt="[​IMG]" data-url="https://i.postimg.cc/2VbR41y5/vlcsnap-2023-06-24-15h29m42s623.png"></a> <a href="https://postimg.cc/TycZRm7t" target="_blank" class="externalLink" rel="nofollow"><img src="https://i.postimg.cc/TycZRm7t/vlcsnap-2023-06-24-15h29m45s161.png" class="bbCodeImage LbImage" alt="[​IMG]" data-url="https://i.postimg.cc/TycZRm7t/vlcsnap-2023-06-24-15h29m45s161.png"></a> <br>
<br>
<i><br>
Kyle (I Found You)<br>
Bleu (better with time)<br>
Jungle<br>
Rumble<br>
Obong<br>
Dermot (See Yourself in My Eyes)<br>
Danielle (Smile On My Face)<br>
Chanel vs. A New Error (Fred Again.. Mashup)<br>
Sabrina (I Am a Party)<br>
Angie (I've Been Lost)<br>
Delilah (Pull Me Out of This)<br>
Billie (Loving Arms)<br>
</i><br>
<br>
​</div><br>
<div class="bbCodeBlock bbCodeCode">
<div class="type">Code:</div>
<pre>General
ID                                       : 1 (0x1)
Complete name                            : D:\Fred again.. - Live @ Glastonbury 2023 HDTV H264 1080i DD2.0-ilya2129.ts
Format                                   : MPEG-TS
File size                                : 3.48 GiB
Duration                                 : 55 min 52 s
Overall bit rate mode                    : Variable
Overall bit rate                         : 8 910 kb/s
Frame rate                               : 25.000 FPS

Video
ID                                       : 302 (0x12E)
Menu ID                                  : 1 (0x1)
Format                                   : AVC
Format/Info                              : Advanced Video Codec
Format profile                           : High@L4
Format settings                          : CABAC / 4 Ref Frames
Format settings, CABAC                   : Yes
Format settings, Reference frames        : 4 frames
Codec ID                                 : 27
Duration                                 : 55 min 52 s
Bit rate                                 : 8 017 kb/s
Width                                    : 1 920 pixels
Height                                   : 1 080 pixels
Display aspect ratio                     : 16:9
Frame rate                               : 25.000 FPS
Standard                                 : Component
Color space                              : YUV
Chroma subsampling                       : 4:2:0
Bit depth                                : 8 bits
Scan type                                : MBAFF
Scan type, store method                  : Separated fields
Scan order                               : Top Field First
Bits/(Pixel*Frame)                       : 0.155
Stream size                              : 3.13 GiB (90%)
Color range                              : Limited
Color primaries                          : BT.709
Transfer characteristics                 : BT.709
Matrix coefficients                      : BT.709

Audio #1
ID                                       : 303 (0x12F)
Menu ID                                  : 1 (0x1)
Format                                   : MPEG Audio
Format version                           : Version 1
Format profile                           : Layer 2
Codec ID                                 : 3
Duration                                 : 55 min 52 s
Bit rate mode                            : Constant
Bit rate                                 : 256 kb/s
Channel(s)                               : 2 channels
Sampling rate                            : 48.0 kHz
Frame rate                               : 41.667 FPS (1152 SPF)
Compression mode                         : Lossy
Stream size                              : 102 MiB (3%)
Language                                 : nar

Audio #2
ID                                       : 304 (0x130)
Menu ID                                  : 1 (0x1)
Format                                   : AC-3
Format/Info                              : Audio Coding 3
Commercial name                          : Dolby Digital
Codec ID                                 : 6
Duration                                 : 55 min 52 s
Bit rate mode                            : Constant
Bit rate                                 : 192 kb/s
Channel(s)                               : 2 channels
Channel layout                           : L R
Sampling rate                            : 48.0 kHz
Frame rate                               : 31.250 FPS (1536 SPF)
Compression mode                         : Lossy
Stream size                              : 76.7 MiB (2%)
Language                                 : English
Service kind                             : Complete Main

Text
ID                                       : 310 (0x136)-888
Menu ID                                  : 1 (0x1)
Format                                   : Teletext Subtitle
Language                                 : English

</pre>
</div>
<div class="bbCodeBlock bbCodeVfcHH HiddenContent">
<div class="attribution type">Hidden Content:</div>
<blockquote>You must reply before you can see the hidden data contained here.</blockquote>
</div>
<div class="messageTextEndMarker">&nbsp;</div>
</blockquote>
</article>]]></description>
                <author><![CDATA[ilya2129]]></author>
                </item>

                </channel></rss>